#!OML:ASF F:\VICON\USERDATA\INSTALL\rory3\rory3.ASF
:FULLY-SPECIFIED
:DEGREES
2361
root -1.98472 17.7609 -5.04591 -244.114 91.6945 -249.7
lowerback 4.20887 -3.0138 -8.56064
upperback 1.02931 -4.33816 -1.65198
thorax -0.781927 -2.13418 3.25947
lowerneck -8.85447 -14.5265 -17.5255
upperneck 25.4333 -17.2779 2.14229
head 11.566 -9.21347 1.13549
rclavicle 9.54166e-015 -7.95139e-015
rhumerus -34.4786 -54.6591 -23.5653
rradius 33.618
rwrist -49.1733
rhand -34.1104 -3.92722
rfingers 7.12502
rthumb -7.28616 -33.7818
lclavicle 9.54166e-015 -7.95139e-015
lhumerus -45.5959 28.036 36.1278
lradius 46.0833
lwrist 14.7027
lhand -20.003 41.8237
lfingers 7.12502
lthumb 6.33694 1151.71
rfemur -26.9967 5.10541 10.5248
rtibia 26.5707
rfoot -9.75941 -7.34619
rtoes -0.347366
lfemur -8.6468 -4.75004 -18.385
ltibia 25.2827
lfoot -18.4107 -7.18574
ltoes -4.2189
2362
root -1.94946 17.7595 -5.02675 -253.679 91.7859 -259.493
lowerback 4.15191 -2.80371 -8.29752
upperback 1.06615 -4.0376 -1.90734
thorax -0.784397 -1.98259 2.83865
lowerneck -8.64242 -14.8361 -16.8642
upperneck 25.3271 -17.8841 2.10644
head 11.4658 -9.44105 0.953066
rclavicle -2.24627e-014 3.18055e-015
rhumerus -34.6877 -55.5259 -22.0612
rradius 33.9666
rwrist -49.2928
rhand -34.5451 -3.60357
rfingers 7.12502
rthumb -7.70571 -33.4432
lclavicle -2.24627e-014 3.18055e-015
lhumerus -45.8503 28.0328 34.4649
lradius 45.5497
lwrist 14.7297
lhand -20.4538 42.3311
lfingers 7.12502
lthumb 5.9017 1152.23
rfemur -27.4128 5.25876 10.7004
rtibia 26.1727
rfoot -9.52118 -7.20396
rtoes -0.755033
lfemur -8.80974 -4.81695 -18.1296
ltibia 25.2427
lfoot -18.4739 -7.09101
ltoes -5.29317
2363
root -1.9128 17.7634 -5.0059 -260.949 91.857 -266.934
lowerback 4.15265 -2.64922 -8.19352
upperback 1.08256 -3.82494 -2.08281
thorax -0.809942 -1.87389 2.59393
lowerneck -8.43527 -15.0169 -16.5734
upperneck 25.2343 -18.2883 2.28778
head 11.415 -9.58595 0.927866
rclavicle 3.33958e-014 3.49861e-014
rhumerus -34.2933 -56.1673 -21.051
rradius 34.4374
rwrist -49.5574
rhand -34.9084 -3.43959
rfingers 7.12502
rthumb -8.0564 -33.266
lclavicle 3.33958e-014 3.49861e-014
lhumerus -46.3135 28.1168 32.8141
lradius 44.9698
lwrist 14.6126
lhand -20.5566 42.5887
lfingers 7.12502
lthumb 5.80242 1152.49
rfemur -27.715 5.41144 10.8134
rtibia 25.7409
rfoot -9.18518 -7.01568
rtoes -2.22951
lfemur -8.88862 -5.05152 -17.9231
ltibia 25.2552
lfoot -18.5248 -7.06642
ltoes -5.47699
2364
root -1.87361 17.7615 -4.98311 -268.016 92.0897 -274.059
lowerback 4.24894 -2.59251 -8.05057
upperback 1.10715 -3.75258 -2.06717
thorax -0.854259 -1.83725 2.53369
lowerneck -8.20909 -15.0775 -16.8642
upperneck 25.0956 -18.4957 2.77961
head 11.4254 -9.65757 1.11724
rclavicle 2.20651e-014 9.54166e-015
rhumerus -32.9013 -56.5315 -20.7351
rradius 34.8483
rwrist -49.8068
rhand -34.9967 -3.07852
rfingers 7.12502
rthumb -8.14161 -32.9017
lclavicle 2.20651e-014 9.54166e-015
lhumerus -47.2308 28.4643 31.236
lradius 44.5948
lwrist 14.6657
lhand -20.763 42.8418
lfingers 7.12502
lthumb 5.60315 1152.75
rfemur -27.845 5.47444 11.1246
rtibia 25.3094
rfoot -8.91293 -6.75917
rtoes -2.43844
lfemur -8.83329 -5.31651 -17.5709
ltibia 25.2562
lfoot -18.5411 -7.13059
ltoes -4.9764
2365
root -1.83777 17.7628 -4.96352 -276.743 92.1785 -282.85
lowerback 4.39072 -2.5857 -8.01046
upperback 1.13326 -3.75324 -2.12607
thorax -0.912985 -1.83492 2.45783
lowerneck -8.08427 -15.1676 -16.9694
upperneck 24.995 -18.7077 3.06979
head 11.4284 -9.73535 1.20418
rclavicle -2.08724e-014 -3.18055e-015
rhumerus -31.2554 -56.8072 -20.6822
rradius 35.2517
rwrist -49.8274
rhand -34.8634 -2.76457
rfingers 7.12502
rthumb -8.0129 -32.5927
lclavicle -2.08724e-014 -3.18055e-015
lhumerus -48.1062 28.6709 29.7855
lradius 44.3664
lwrist 15.0338
lhand -21.0744 43.106
lfingers 7.12502
lthumb 5.30254 1153.02
rfemur -27.9492 5.49566 11.2144
rtibia 24.8985
rfoot -8.83383 -6.72205
rtoes -2.09616
lfemur -8.76594 -5.83681 -17.4286
ltibia 25.2234
lfoot -18.6346 -6.9768
ltoes -5.30397
2366
root -1.80142 17.7724 -4.94961 -286.49 92.0714 -292.817
lowerback 4.36315 -2.54084 -8.10124
upperback 1.11716 -3.69241 -2.30664
thorax -0.926275 -1.80075 2.31864
lowerneck -7.95916 -15.3348 -16.8555
upperneck 24.9758 -18.9934 3.08756
head 11.4162 -9.85685 1.1547
rclavicle 2.78299e-014 -1.74931e-014
rhumerus -29.8851 -57.0764 -20.4829
rradius 35.821
rwrist -49.7467
rhand -34.79 -2.7701
rfingers 7.12502
rthumb -7.94205 -32.6009
lclavicle 2.78299e-014 -1.74931e-014
lhumerus -48.6963 28.6691 28.5148
lradius 44.1279
lwrist 15.4491
lhand -21.3677 43.429
lfingers 7.12502
lthumb 5.01936 1153.35
rfemur -28.2709 5.33861 11.0289
rtibia 24.581
rfoot -8.63055 -6.65362
rtoes -3.12192
lfemur -8.81588 -6.45397 -17.5474
ltibia 25.1494
lfoot -18.7254 -6.78846
ltoes -5.76873
